<?xml version="1.0" encoding="UTF-8"?>
<!DOCTYPE svg PUBLIC "-//W3C//DTD SVG 1.1//EN" "http://www.w3.org/Graphics/SVG/1.1/DTD/svg11.dtd">
<svg xmlns="http://www.w3.org/2000/svg" version="1.1" width="509px" height="630px" style="shape-rendering:geometricPrecision; text-rendering:geometricPrecision; image-rendering:optimizeQuality; fill-rule:evenodd; clip-rule:evenodd" xmlns:xlink="http://www.w3.org/1999/xlink">
<g><path style="opacity:0.997" fill="#00a1e8" d="M 419.5,188.5 C 419.083,189.124 418.416,189.457 417.5,189.5C 392.59,184.685 367.757,179.685 343,174.5C 342.722,175.416 342.222,176.082 341.5,176.5C 342.084,133.27 322.084,104.437 281.5,90C 268.269,86.1741 254.935,85.6741 241.5,88.5C 253.701,37.1392 286.201,9.80591 339,6.5C 381.432,8.70112 411.432,29.0345 429,67.5C 444.119,108.668 436.619,145.001 406.5,176.5C 411.097,180.284 415.43,184.284 419.5,188.5 Z"/></g>
<g><path style="opacity:0.989" fill="#029bde" d="M 178.5,192.5 C 153.661,188.504 128.661,184.004 103.5,179C 102.956,178.283 102.289,177.783 101.5,177.5C 125.44,157.697 152.44,144.03 182.5,136.5C 174.909,154.733 173.576,173.399 178.5,192.5 Z"/></g>
<g><path style="opacity:0.993" fill="#019ee3" d="M 419.5,188.5 C 432.246,198.578 443.246,210.245 452.5,223.5C 451.883,223.611 451.383,223.944 451,224.5C 412.967,216.594 374.8,209.26 336.5,202.5C 336.5,201.5 336.5,200.5 336.5,199.5C 339.27,192.084 340.937,184.417 341.5,176.5C 342.222,176.082 342.722,175.416 343,174.5C 367.757,179.685 392.59,184.685 417.5,189.5C 418.416,189.457 419.083,189.124 419.5,188.5 Z"/></g>
<g><path style="opacity:0.993" fill="#0496d7" d="M 101.5,177.5 C 102.289,177.783 102.956,178.283 103.5,179C 128.661,184.004 153.661,188.504 178.5,192.5C 181.169,201.504 185.169,209.837 190.5,217.5C 159.477,211.862 128.477,206.029 97.5,200C 91.5108,199.178 85.8441,197.678 80.5,195.5C 86.8859,188.781 93.8859,182.781 101.5,177.5 Z"/></g>
<g><path style="opacity:0.995" fill="#0593d1" d="M 80.5,195.5 C 85.8441,197.678 91.5108,199.178 97.5,200C 128.477,206.029 159.477,211.862 190.5,217.5C 194.924,223.429 199.924,228.929 205.5,234C 214.062,239.774 222.729,245.274 231.5,250.5C 174.627,238.859 117.627,227.859 60.5,217.5C 66.8258,209.842 73.4925,202.508 80.5,195.5 Z"/></g>
<g><path style="opacity:0.995" fill="#029adc" d="M 336.5,199.5 C 336.5,200.5 336.5,201.5 336.5,202.5C 374.8,209.26 412.967,216.594 451,224.5C 451.383,223.944 451.883,223.611 452.5,223.5C 458.953,231.626 464.62,240.293 469.5,249.5C 420.741,240.948 372.408,231.282 324.5,220.5C 329.302,213.889 333.302,206.889 336.5,199.5 Z"/></g>
<g><path style="opacity:0.996" fill="#0496d7" d="M 324.5,220.5 C 372.408,231.282 420.741,240.948 469.5,249.5C 474.535,256.903 478.535,264.903 481.5,273.5C 480.883,273.611 480.383,273.944 480,274.5C 421.303,262.578 362.47,251.244 303.5,240.5C 311.158,234.508 318.158,227.841 324.5,220.5 Z"/></g>
<g><path style="opacity:1" fill="#078ec9" d="M 60.5,217.5 C 117.627,227.859 174.627,238.859 231.5,250.5C 242.665,260.015 249.665,272.015 252.5,286.5C 251.069,285.22 250.402,283.553 250.5,281.5C 181.373,268.674 112.373,255.341 43.5,241.5C 48.3968,232.939 54.0635,224.939 60.5,217.5 Z"/></g>
<g><path style="opacity:0.996" fill="#0593d1" d="M 303.5,240.5 C 362.47,251.244 421.303,262.578 480,274.5C 480.383,273.944 480.883,273.611 481.5,273.5C 485.631,282.116 488.965,291.116 491.5,300.5C 440.001,290.567 388.501,280.567 337,270.5C 335.93,270.528 335.097,270.861 334.5,271.5C 320.475,261.32 305.141,253.486 288.5,248C 293.306,245.016 298.306,242.516 303.5,240.5 Z"/></g>
<g><path style="opacity:0.999" fill="#098bc4" d="M 43.5,241.5 C 112.373,255.341 181.373,268.674 250.5,281.5C 250.402,283.553 251.069,285.22 252.5,286.5C 253.427,293.443 253.76,300.443 253.5,307.5C 252.596,306.791 252.263,305.791 252.5,304.5C 179.087,290.417 105.754,276.084 32.5,261.5C 35.3721,254.321 39.0388,247.654 43.5,241.5 Z"/></g>
<g><path style="opacity:1" fill="#0a87be" d="M 32.5,261.5 C 105.754,276.084 179.087,290.417 252.5,304.5C 252.263,305.791 252.596,306.791 253.5,307.5C 252.201,315.402 249.535,322.735 245.5,329.5C 245.33,328.178 245.663,327.011 246.5,326C 245.5,325.667 244.5,325.333 243.5,325C 170.027,310.939 96.6941,296.439 23.5,281.5C 25.4348,274.301 28.4348,267.635 32.5,261.5 Z"/></g>
<g><path style="opacity:1" fill="#0c84b8" d="M 23.5,281.5 C 96.6941,296.439 170.027,310.939 243.5,325C 244.5,325.333 245.5,325.667 246.5,326C 245.663,327.011 245.33,328.178 245.5,329.5C 242.338,336.336 237.671,342.003 231.5,346.5C 230.77,344.955 229.437,344.122 227.5,344C 197.511,338.102 167.511,332.269 137.5,326.5C 136.287,326.747 135.62,327.414 135.5,328.5C 123.56,316.351 109.56,313.351 93.5,319.5C 93.2089,318.351 92.3756,317.684 91,317.5C 65.9004,312.38 40.7337,307.713 15.5,303.5C 17.2019,295.72 19.8686,288.387 23.5,281.5 Z"/></g>
<g><path style="opacity:0.998" fill="#078eca" d="M 491.5,300.5 C 495.294,311.451 497.961,322.785 499.5,334.5C 498.927,331.241 496.927,329.408 493.5,329C 450.867,320.473 408.201,312.473 365.5,305C 366.337,306.011 366.67,307.178 366.5,308.5C 357.299,294.961 346.632,282.627 334.5,271.5C 335.097,270.861 335.93,270.528 337,270.5C 388.501,280.567 440.001,290.567 491.5,300.5 Z"/></g>
<g><path style="opacity:0.999" fill="#0e80b1" d="M 15.5,303.5 C 40.7337,307.713 65.9004,312.38 91,317.5C 92.3756,317.684 93.2089,318.351 93.5,319.5C 84.1559,325.171 77.8226,333.171 74.5,343.5C 53.1364,338.294 31.4697,333.961 9.5,330.5C 10.7387,321.304 12.7387,312.304 15.5,303.5 Z"/></g>
<g><path style="opacity:0.993" fill="#098bc3" d="M 499.5,334.5 C 500.822,341.092 501.489,347.758 501.5,354.5C 500.466,353.313 499.133,352.48 497.5,352C 476.449,348.023 455.449,343.856 434.5,339.5C 433.818,340.243 433.151,340.909 432.5,341.5C 421.3,326.046 406.634,321.546 388.5,328C 385.032,329.97 381.699,332.136 378.5,334.5C 374.488,325.812 370.488,317.145 366.5,308.5C 366.67,307.178 366.337,306.011 365.5,305C 408.201,312.473 450.867,320.473 493.5,329C 496.927,329.408 498.927,331.241 499.5,334.5 Z"/></g>
<g><path style="opacity:0.998" fill="#0d80b2" d="M 231.5,346.5 C 212.158,362.53 190.491,366.363 166.5,358C 152.046,352.376 141.712,342.543 135.5,328.5C 135.62,327.414 136.287,326.747 137.5,326.5C 167.511,332.269 197.511,338.102 227.5,344C 229.437,344.122 230.77,344.955 231.5,346.5 Z"/></g>
<g><path style="opacity:1" fill="#0f7cab" d="M 9.5,330.5 C 31.4697,333.961 53.1364,338.294 74.5,343.5C 74.1516,350.948 74.8182,358.281 76.5,365.5C 53.6798,360.78 30.8465,356.113 8,351.5C 7.80192,353.382 7.30192,355.048 6.5,356.5C 6.69672,347.603 7.69672,338.936 9.5,330.5 Z"/></g>
<g><path style="opacity:0.998" fill="#0a87be" d="M 501.5,354.5 C 502.479,366.42 502.812,378.42 502.5,390.5C 501.512,385.36 501.179,380.026 501.5,374.5C 480.531,371.073 459.697,367.073 439,362.5C 438.802,364.382 438.302,366.048 437.5,367.5C 438.93,358.302 437.263,349.635 432.5,341.5C 433.151,340.909 433.818,340.243 434.5,339.5C 455.449,343.856 476.449,348.023 497.5,352C 499.133,352.48 500.466,353.313 501.5,354.5 Z"/></g>
<g><path style="opacity:1" fill="#1178a5" d="M 76.5,365.5 C 87.8802,384.126 103.88,389.959 124.5,383C 125.461,389.137 126.461,395.303 127.5,401.5C 126.596,400.791 126.263,399.791 126.5,398.5C 86.5305,391.406 46.6971,383.739 7,375.5C 6.8255,380.351 6.3255,385.018 5.5,389.5C 5.21139,378.449 5.54472,367.449 6.5,356.5C 7.30192,355.048 7.80192,353.382 8,351.5C 30.8465,356.113 53.6798,360.78 76.5,365.5 Z"/></g>
<g><path style="opacity:1" fill="#0c84b8" d="M 502.5,390.5 C 501.891,394.605 501.225,398.605 500.5,402.5C 500.5,400.5 500.5,398.5 500.5,396.5C 476.178,392.096 452.178,387.763 428.5,383.5C 432.557,378.715 435.557,373.382 437.5,367.5C 438.302,366.048 438.802,364.382 439,362.5C 459.697,367.073 480.531,371.073 501.5,374.5C 501.179,380.026 501.512,385.36 502.5,390.5 Z"/></g>
<g><path style="opacity:0.999" fill="#0e80b1" d="M 428.5,383.5 C 452.178,387.763 476.178,392.096 500.5,396.5C 500.5,398.5 500.5,400.5 500.5,402.5C 500.228,410.801 498.894,418.801 496.5,426.5C 496.423,425.25 495.756,424.417 494.5,424C 426.499,410.766 358.499,397.6 290.5,384.5C 306.802,368 326.468,362.167 349.5,367C 357.771,368.969 365.438,372.303 372.5,377C 386.311,395.369 403.311,399.036 423.5,388C 425.037,386.293 426.704,384.793 428.5,383.5 Z"/></g>
<g><path style="opacity:1" fill="#13749f" d="M 127.5,401.5 C 129.428,408.951 131.761,416.285 134.5,423.5C 92.3966,414.279 50.0633,405.946 7.5,398.5C 7.5,399.5 7.5,400.5 7.5,401.5C 6.77523,397.605 6.10857,393.605 5.5,389.5C 6.3255,385.018 6.8255,380.351 7,375.5C 46.6971,383.739 86.5305,391.406 126.5,398.5C 126.263,399.791 126.596,400.791 127.5,401.5 Z"/></g>
<g><path style="opacity:1" fill="#0f7cab" d="M 290.5,384.5 C 358.499,397.6 426.499,410.766 494.5,424C 495.756,424.417 496.423,425.25 496.5,426.5C 495.246,433.928 493.579,441.262 491.5,448.5C 490.69,445.911 488.856,444.578 486,444.5C 417.333,431.167 348.667,417.833 280,404.5C 278.744,404.648 277.577,404.982 276.5,405.5C 278.925,396.977 283.592,389.977 290.5,384.5 Z"/></g>
<g><path style="opacity:1" fill="#147199" d="M 134.5,423.5 C 139.058,432.73 144.058,441.73 149.5,450.5C 103.686,440.737 57.6863,431.737 11.5,423.5C 11.5,424.5 11.5,425.5 11.5,426.5C 9.21385,418.445 7.88052,410.112 7.5,401.5C 7.5,400.5 7.5,399.5 7.5,398.5C 50.0633,405.946 92.3966,414.279 134.5,423.5 Z"/></g>
<g><path style="opacity:1" fill="#1178a5" d="M 491.5,448.5 C 488.872,456.065 485.872,463.399 482.5,470.5C 482.5,469.5 482.5,468.5 482.5,467.5C 412.477,454.295 342.477,440.962 272.5,427.5C 272.5,429.833 272.5,432.167 272.5,434.5C 270.89,424.484 272.223,414.817 276.5,405.5C 277.577,404.982 278.744,404.648 280,404.5C 348.667,417.833 417.333,431.167 486,444.5C 488.856,444.578 490.69,445.911 491.5,448.5 Z"/></g>
<g><path style="opacity:1" fill="#166d92" d="M 149.5,450.5 C 154.967,456.138 160.301,461.971 165.5,468C 171.688,472.697 177.688,477.531 183.5,482.5C 128.352,471.467 73.3522,461.134 18.5,451.5C 15.0979,443.57 12.7646,435.237 11.5,426.5C 11.5,425.5 11.5,424.5 11.5,423.5C 57.6863,431.737 103.686,440.737 149.5,450.5 Z"/></g>
<g><path style="opacity:1" fill="#13749f" d="M 482.5,470.5 C 479.949,477.933 476.615,484.933 472.5,491.5C 472.67,490.178 472.337,489.011 471.5,488C 406.535,475.14 341.535,462.806 276.5,451C 277.337,452.011 277.67,453.178 277.5,454.5C 274.072,448.387 272.406,441.721 272.5,434.5C 272.5,432.167 272.5,429.833 272.5,427.5C 342.477,440.962 412.477,454.295 482.5,467.5C 482.5,468.5 482.5,469.5 482.5,470.5 Z"/></g>
<g><path style="opacity:1" fill="#147199" d="M 472.5,491.5 C 469.503,498.838 465.503,505.505 460.5,511.5C 460.209,510.351 459.376,509.684 458,509.5C 404.479,499.062 350.979,488.895 297.5,479C 299.324,479.66 300.657,480.827 301.5,482.5C 290.27,475.937 282.27,466.603 277.5,454.5C 277.67,453.178 277.337,452.011 276.5,451C 341.535,462.806 406.535,475.14 471.5,488C 472.337,489.011 472.67,490.178 472.5,491.5 Z"/></g>
<g><path style="opacity:1" fill="#17698d" d="M 183.5,482.5 C 211.554,499.428 241.888,505.761 274.5,501.5C 331.162,510.997 387.495,521.664 443.5,533.5C 439.199,539.135 434.533,544.468 429.5,549.5C 429.209,548.351 428.376,547.684 427,547.5C 293.577,521.749 160.244,495.749 27,469.5C 26.5172,470.448 26.3505,471.448 26.5,472.5C 22.6737,466.032 20.007,459.032 18.5,451.5C 73.3522,461.134 128.352,471.467 183.5,482.5 Z"/></g>
<g><path style="opacity:1" fill="#196586" d="M 429.5,549.5 C 427.105,552.861 424.105,555.528 420.5,557.5C 420.389,556.883 420.056,556.383 419.5,556C 291.179,531.102 162.845,506.269 34.5,481.5C 32.9704,481.64 31.9704,482.307 31.5,483.5C 29.0431,480.249 27.3764,476.582 26.5,472.5C 26.3505,471.448 26.5172,470.448 27,469.5C 160.244,495.749 293.577,521.749 427,547.5C 428.376,547.684 429.209,548.351 429.5,549.5 Z"/></g>
<g><path style="opacity:1" fill="#166d92" d="M 460.5,511.5 C 455.568,519.429 449.901,526.762 443.5,533.5C 387.495,521.664 331.162,510.997 274.5,501.5C 287.375,498.985 299.708,494.651 311.5,488.5C 307.781,486.981 304.447,484.981 301.5,482.5C 300.657,480.827 299.324,479.66 297.5,479C 350.979,488.895 404.479,499.062 458,509.5C 459.376,509.684 460.209,510.351 460.5,511.5 Z"/></g>
<g><path style="opacity:1" fill="#1b6180" d="M 420.5,557.5 C 417.585,560.959 414.252,563.959 410.5,566.5C 409.77,564.955 408.437,564.122 406.5,564C 283.783,540.356 161.116,516.523 38.5,492.5C 37.7025,492.957 37.3691,493.624 37.5,494.5C 34.7417,491.322 32.7417,487.655 31.5,483.5C 31.9704,482.307 32.9704,481.64 34.5,481.5C 162.845,506.269 291.179,531.102 419.5,556C 420.056,556.383 420.389,556.883 420.5,557.5 Z"/></g>
<g><path style="opacity:1" fill="#1c5e7a" d="M 410.5,566.5 C 407.48,569.516 404.146,572.183 400.5,574.5C 400.209,573.351 399.376,572.684 398,572.5C 280.218,549.399 162.385,526.899 44.5,505C 45.5822,506.33 46.2488,507.83 46.5,509.5C 42.7487,505.005 39.7487,500.005 37.5,494.5C 37.3691,493.624 37.7025,492.957 38.5,492.5C 161.116,516.523 283.783,540.356 406.5,564C 408.437,564.122 409.77,564.955 410.5,566.5 Z"/></g>
<g><path style="opacity:1" fill="#1e5a73" d="M 400.5,574.5 C 395.475,578.345 390.142,581.678 384.5,584.5C 385.598,583.603 385.598,582.77 384.5,582C 385.833,581.667 387.167,581.333 388.5,581C 276.197,558.806 163.864,537.139 51.5,516C 52.8228,516.816 53.4894,517.983 53.5,519.5C 50.3954,516.725 48.0621,513.392 46.5,509.5C 46.2488,507.83 45.5822,506.33 44.5,505C 162.385,526.899 280.218,549.399 398,572.5C 399.376,572.684 400.209,573.351 400.5,574.5 Z"/></g>
<g><path style="opacity:1" fill="#20566d" d="M 384.5,584.5 C 381.709,586.735 378.709,588.735 375.5,590.5C 375.423,589.25 374.756,588.417 373.5,588C 269.844,567.769 166.178,547.602 62.5,527.5C 61.5836,527.543 60.9169,527.876 60.5,528.5C 57.4442,526.051 55.1108,523.051 53.5,519.5C 53.4894,517.983 52.8228,516.816 51.5,516C 163.864,537.139 276.197,558.806 388.5,581C 387.167,581.333 385.833,581.667 384.5,582C 385.598,582.77 385.598,583.603 384.5,584.5 Z"/></g>
<g><path style="opacity:1" fill="#215367" d="M 375.5,590.5 C 371.5,592.5 367.5,594.5 363.5,596.5C 266.253,577.084 168.919,558.25 71.5,540C 72.2524,540.671 72.5858,541.504 72.5,542.5C 67.383,538.722 63.383,534.055 60.5,528.5C 60.9169,527.876 61.5836,527.543 62.5,527.5C 166.178,547.602 269.844,567.769 373.5,588C 374.756,588.417 375.423,589.25 375.5,590.5 Z"/></g>
<g><path style="opacity:1" fill="#234e61" d="M 363.5,596.5 C 356.916,600.287 349.916,603.287 342.5,605.5C 342.611,604.883 342.944,604.383 343.5,604C 257.021,586.735 170.688,570.235 84.5,554.5C 79.5,551.5 75.5,547.5 72.5,542.5C 72.5858,541.504 72.2524,540.671 71.5,540C 168.919,558.25 266.253,577.084 363.5,596.5 Z"/></g>
<g><path style="opacity:1" fill="#254b5b" d="M 342.5,605.5 C 335.501,608.609 328.168,610.943 320.5,612.5C 321.398,611.842 322.398,611.176 323.5,610.5C 249.206,595.407 174.872,580.907 100.5,567C 102.041,568.371 103.375,569.871 104.5,571.5C 99.8709,568.841 95.5376,565.674 91.5,562C 88.9614,559.63 86.6281,557.13 84.5,554.5C 170.688,570.235 257.021,586.735 343.5,604C 342.944,604.383 342.611,604.883 342.5,605.5 Z"/></g>
<g><path style="opacity:1" fill="#264754" d="M 320.5,612.5 C 315.436,614.452 310.103,615.785 304.5,616.5C 304.611,615.883 304.944,615.383 305.5,615C 242.503,602.6 179.503,590.6 116.5,579C 117.056,579.383 117.389,579.883 117.5,580.5C 112.635,578.237 108.302,575.237 104.5,571.5C 103.375,569.871 102.041,568.371 100.5,567C 174.872,580.907 249.206,595.407 323.5,610.5C 322.398,611.176 321.398,611.842 320.5,612.5 Z"/></g>
<g><path style="opacity:1" fill="#28444e" d="M 304.5,616.5 C 243.74,628.7 186.074,619.866 131.5,590C 126.382,587.361 121.715,584.195 117.5,580.5C 117.389,579.883 117.056,579.383 116.5,579C 179.503,590.6 242.503,602.6 305.5,615C 304.944,615.383 304.611,615.883 304.5,616.5 Z"/></g>
</svg>
